<mxfile host="app.diagrams.net" modified="2022-12-04T06:43:54.287Z" agent="5.0 (Windows NT 10.0; Win64; x64) AppleWebKit/537.36 (KHTML, like Gecko) Chrome/107.0.0.0 Safari/537.36" etag="2cL2pm1amwIfHkgO6U5K" version="20.6.0" type="github">
  <diagram name="Page-1" id="90a13364-a465-7bf4-72fc-28e22215d7a0">
    <mxGraphModel dx="2031" dy="1077" grid="1" gridSize="10" guides="1" tooltips="1" connect="1" arrows="1" fold="1" page="1" pageScale="1.5" pageWidth="1169" pageHeight="826" background="none" math="0" shadow="0">
      <root>
        <mxCell id="0" style=";html=1;" />
        <mxCell id="1" style=";html=1;" parent="0" />
        <mxCell id="RNQJXxysi92MJcqBM2zN-65" value="" style="rounded=0;whiteSpace=wrap;html=1;fillColor=#dae8fc;strokeColor=#6c8ebf;dashed=1;" parent="1" vertex="1">
          <mxGeometry x="210" y="410" width="230" height="140" as="geometry" />
        </mxCell>
        <mxCell id="RNQJXxysi92MJcqBM2zN-3" value="" style="rounded=0;whiteSpace=wrap;html=1;fillColor=#dae8fc;strokeColor=#6c8ebf;dashed=1;" parent="1" vertex="1">
          <mxGeometry x="450" y="410" width="290" height="300" as="geometry" />
        </mxCell>
        <mxCell id="3a17f1ce550125da-8" value="motor value converter" style="whiteSpace=wrap;html=1;shadow=1;fontSize=18;fillColor=#f5f5f5;strokeColor=#666666;" parent="1" vertex="1">
          <mxGeometry x="790" y="480" width="207" height="56" as="geometry" />
        </mxCell>
        <mxCell id="RNQJXxysi92MJcqBM2zN-16" value="" style="group" parent="1" vertex="1" connectable="0">
          <mxGeometry x="760" y="570" width="267" height="116" as="geometry" />
        </mxCell>
        <mxCell id="RNQJXxysi92MJcqBM2zN-8" value="ROS&lt;br&gt;Controller" style="whiteSpace=wrap;html=1;shadow=1;fontSize=18;fillColor=#f5f5f5;strokeColor=#666666;" parent="RNQJXxysi92MJcqBM2zN-16" vertex="1">
          <mxGeometry width="207" height="56" as="geometry" />
        </mxCell>
        <mxCell id="RNQJXxysi92MJcqBM2zN-10" value="ROS&lt;br&gt;Controller" style="whiteSpace=wrap;html=1;shadow=1;fontSize=18;fillColor=#f5f5f5;strokeColor=#666666;" parent="RNQJXxysi92MJcqBM2zN-16" vertex="1">
          <mxGeometry x="10" y="10" width="207" height="56" as="geometry" />
        </mxCell>
        <mxCell id="RNQJXxysi92MJcqBM2zN-11" value="ROS&lt;br&gt;Controller" style="whiteSpace=wrap;html=1;shadow=1;fontSize=18;fillColor=#f5f5f5;strokeColor=#666666;" parent="RNQJXxysi92MJcqBM2zN-16" vertex="1">
          <mxGeometry x="20" y="20" width="207" height="56" as="geometry" />
        </mxCell>
        <mxCell id="RNQJXxysi92MJcqBM2zN-12" value="ROS&lt;br&gt;Controller" style="whiteSpace=wrap;html=1;shadow=1;fontSize=18;fillColor=#f5f5f5;strokeColor=#666666;" parent="RNQJXxysi92MJcqBM2zN-16" vertex="1">
          <mxGeometry x="30" y="30" width="207" height="56" as="geometry" />
        </mxCell>
        <mxCell id="RNQJXxysi92MJcqBM2zN-13" value="ROS&lt;br&gt;Controller" style="whiteSpace=wrap;html=1;shadow=1;fontSize=18;fillColor=#f5f5f5;strokeColor=#666666;" parent="RNQJXxysi92MJcqBM2zN-16" vertex="1">
          <mxGeometry x="40" y="40" width="207" height="56" as="geometry" />
        </mxCell>
        <mxCell id="RNQJXxysi92MJcqBM2zN-14" value="ROS&lt;br&gt;Controller" style="whiteSpace=wrap;html=1;shadow=1;fontSize=18;fillColor=#f5f5f5;strokeColor=#666666;" parent="RNQJXxysi92MJcqBM2zN-16" vertex="1">
          <mxGeometry x="50" y="50" width="207" height="56" as="geometry" />
        </mxCell>
        <mxCell id="RNQJXxysi92MJcqBM2zN-15" value="ROS&lt;br&gt;Controller" style="whiteSpace=wrap;html=1;shadow=1;fontSize=18;fillColor=#f5f5f5;strokeColor=#666666;" parent="RNQJXxysi92MJcqBM2zN-16" vertex="1">
          <mxGeometry x="60" y="60" width="207" height="56" as="geometry" />
        </mxCell>
        <mxCell id="RNQJXxysi92MJcqBM2zN-25" style="edgeStyle=orthogonalEdgeStyle;rounded=0;orthogonalLoop=1;jettySize=auto;html=1;exitX=0.5;exitY=1;exitDx=0;exitDy=0;entryX=0.643;entryY=0;entryDx=0;entryDy=0;entryPerimeter=0;" parent="1" source="3a17f1ce550125da-8" target="RNQJXxysi92MJcqBM2zN-8" edge="1">
          <mxGeometry relative="1" as="geometry" />
        </mxCell>
        <mxCell id="RNQJXxysi92MJcqBM2zN-17" value="" style="group" parent="1" vertex="1" connectable="0">
          <mxGeometry x="220" y="740" width="267" height="116" as="geometry" />
        </mxCell>
        <mxCell id="RNQJXxysi92MJcqBM2zN-18" value="ROS&lt;br&gt;Controller" style="whiteSpace=wrap;html=1;shadow=1;fontSize=18;fillColor=#f5f5f5;strokeColor=#666666;" parent="RNQJXxysi92MJcqBM2zN-17" vertex="1">
          <mxGeometry width="207" height="56" as="geometry" />
        </mxCell>
        <mxCell id="RNQJXxysi92MJcqBM2zN-19" value="ROS&lt;br&gt;Controller" style="whiteSpace=wrap;html=1;shadow=1;fontSize=18;fillColor=#f5f5f5;strokeColor=#666666;" parent="RNQJXxysi92MJcqBM2zN-17" vertex="1">
          <mxGeometry x="10" y="10" width="207" height="56" as="geometry" />
        </mxCell>
        <mxCell id="RNQJXxysi92MJcqBM2zN-20" value="ROS&lt;br&gt;Controller" style="whiteSpace=wrap;html=1;shadow=1;fontSize=18;fillColor=#f5f5f5;strokeColor=#666666;" parent="RNQJXxysi92MJcqBM2zN-17" vertex="1">
          <mxGeometry x="20" y="20" width="207" height="56" as="geometry" />
        </mxCell>
        <mxCell id="RNQJXxysi92MJcqBM2zN-21" value="ROS&lt;br&gt;Controller" style="whiteSpace=wrap;html=1;shadow=1;fontSize=18;fillColor=#f5f5f5;strokeColor=#666666;" parent="RNQJXxysi92MJcqBM2zN-17" vertex="1">
          <mxGeometry x="30" y="30" width="207" height="56" as="geometry" />
        </mxCell>
        <mxCell id="RNQJXxysi92MJcqBM2zN-22" value="ROS&lt;br&gt;Controller" style="whiteSpace=wrap;html=1;shadow=1;fontSize=18;fillColor=#f5f5f5;strokeColor=#666666;" parent="RNQJXxysi92MJcqBM2zN-17" vertex="1">
          <mxGeometry x="40" y="40" width="207" height="56" as="geometry" />
        </mxCell>
        <mxCell id="RNQJXxysi92MJcqBM2zN-23" value="ROS&lt;br&gt;Controller" style="whiteSpace=wrap;html=1;shadow=1;fontSize=18;fillColor=#f5f5f5;strokeColor=#666666;" parent="RNQJXxysi92MJcqBM2zN-17" vertex="1">
          <mxGeometry x="50" y="50" width="207" height="56" as="geometry" />
        </mxCell>
        <mxCell id="RNQJXxysi92MJcqBM2zN-24" value="eposx&lt;br&gt;hardware" style="whiteSpace=wrap;html=1;shadow=1;fontSize=18;fillColor=#f5f5f5;strokeColor=#666666;" parent="RNQJXxysi92MJcqBM2zN-17" vertex="1">
          <mxGeometry x="60" y="60" width="207" height="56" as="geometry" />
        </mxCell>
        <mxCell id="RNQJXxysi92MJcqBM2zN-58" style="edgeStyle=orthogonalEdgeStyle;rounded=0;orthogonalLoop=1;jettySize=auto;html=1;exitX=1;exitY=0.5;exitDx=0;exitDy=0;startArrow=none;startFill=0;endArrow=classic;endFill=1;" parent="1" source="RNQJXxysi92MJcqBM2zN-41" target="RNQJXxysi92MJcqBM2zN-46" edge="1">
          <mxGeometry relative="1" as="geometry" />
        </mxCell>
        <mxCell id="RNQJXxysi92MJcqBM2zN-41" value="ft_sensors" style="whiteSpace=wrap;html=1;shadow=1;fontSize=18;fillColor=#f5f5f5;strokeColor=#666666;" parent="1" vertex="1">
          <mxGeometry x="220" y="553.63" width="207" height="56" as="geometry" />
        </mxCell>
        <mxCell id="RNQJXxysi92MJcqBM2zN-4" value="&lt;h1&gt;Stewart&lt;/h1&gt;" style="text;html=1;strokeColor=none;fillColor=none;align=center;verticalAlign=middle;whiteSpace=wrap;rounded=0;dashed=1;" parent="1" vertex="1">
          <mxGeometry x="542.5" y="423.75" width="105" height="35.625" as="geometry" />
        </mxCell>
        <mxCell id="RNQJXxysi92MJcqBM2zN-52" style="edgeStyle=orthogonalEdgeStyle;rounded=0;orthogonalLoop=1;jettySize=auto;html=1;exitX=1;exitY=0.5;exitDx=0;exitDy=0;entryX=0;entryY=0.5;entryDx=0;entryDy=0;startArrow=none;startFill=0;endArrow=classic;endFill=1;" parent="1" source="RNQJXxysi92MJcqBM2zN-45" target="3a17f1ce550125da-8" edge="1">
          <mxGeometry relative="1" as="geometry" />
        </mxCell>
        <mxCell id="RNQJXxysi92MJcqBM2zN-64" style="edgeStyle=orthogonalEdgeStyle;rounded=0;orthogonalLoop=1;jettySize=auto;html=1;exitX=0;exitY=0.5;exitDx=0;exitDy=0;startArrow=none;startFill=0;endArrow=classic;endFill=1;" parent="1" source="RNQJXxysi92MJcqBM2zN-45" target="RNQJXxysi92MJcqBM2zN-63" edge="1">
          <mxGeometry relative="1" as="geometry" />
        </mxCell>
        <mxCell id="RNQJXxysi92MJcqBM2zN-45" value="ik" style="whiteSpace=wrap;html=1;shadow=1;fontSize=18;fillColor=#f5f5f5;strokeColor=#666666;" parent="1" vertex="1">
          <mxGeometry x="491.5" y="480" width="207" height="56" as="geometry" />
        </mxCell>
        <mxCell id="RNQJXxysi92MJcqBM2zN-60" style="edgeStyle=orthogonalEdgeStyle;rounded=0;orthogonalLoop=1;jettySize=auto;html=1;exitX=0.5;exitY=0;exitDx=0;exitDy=0;entryX=0.5;entryY=1;entryDx=0;entryDy=0;startArrow=none;startFill=0;endArrow=classic;endFill=1;" parent="1" source="RNQJXxysi92MJcqBM2zN-46" target="RNQJXxysi92MJcqBM2zN-45" edge="1">
          <mxGeometry relative="1" as="geometry" />
        </mxCell>
        <mxCell id="RNQJXxysi92MJcqBM2zN-46" value="impedance_controller" style="whiteSpace=wrap;html=1;shadow=1;fontSize=18;fillColor=#f5f5f5;strokeColor=#666666;" parent="1" vertex="1">
          <mxGeometry x="491.5" y="553.63" width="207" height="56" as="geometry" />
        </mxCell>
        <mxCell id="RNQJXxysi92MJcqBM2zN-59" style="edgeStyle=orthogonalEdgeStyle;rounded=0;orthogonalLoop=1;jettySize=auto;html=1;exitX=0.5;exitY=0;exitDx=0;exitDy=0;entryX=0.5;entryY=1;entryDx=0;entryDy=0;startArrow=none;startFill=0;endArrow=classic;endFill=1;" parent="1" source="RNQJXxysi92MJcqBM2zN-47" target="RNQJXxysi92MJcqBM2zN-46" edge="1">
          <mxGeometry relative="1" as="geometry" />
        </mxCell>
        <mxCell id="RNQJXxysi92MJcqBM2zN-61" style="edgeStyle=orthogonalEdgeStyle;rounded=0;orthogonalLoop=1;jettySize=auto;html=1;exitX=1;exitY=0.5;exitDx=0;exitDy=0;entryX=0;entryY=0.5;entryDx=0;entryDy=0;startArrow=classic;startFill=1;endArrow=none;endFill=0;" parent="1" source="RNQJXxysi92MJcqBM2zN-47" target="RNQJXxysi92MJcqBM2zN-15" edge="1">
          <mxGeometry relative="1" as="geometry" />
        </mxCell>
        <mxCell id="RNQJXxysi92MJcqBM2zN-47" value="fk" style="whiteSpace=wrap;html=1;shadow=1;fontSize=18;fillColor=#f5f5f5;strokeColor=#666666;" parent="1" vertex="1">
          <mxGeometry x="491.5" y="630" width="207" height="56" as="geometry" />
        </mxCell>
        <mxCell id="RNQJXxysi92MJcqBM2zN-56" value="joy" style="whiteSpace=wrap;html=1;shadow=1;fontSize=18;fillColor=#f5f5f5;strokeColor=#666666;" parent="1" vertex="1">
          <mxGeometry x="220" y="609.63" width="207" height="56" as="geometry" />
        </mxCell>
        <mxCell id="RNQJXxysi92MJcqBM2zN-62" style="edgeStyle=orthogonalEdgeStyle;rounded=0;orthogonalLoop=1;jettySize=auto;html=1;exitX=0.5;exitY=1;exitDx=0;exitDy=0;entryX=1;entryY=0.5;entryDx=0;entryDy=0;startArrow=classic;startFill=1;endArrow=classic;endFill=1;" parent="1" source="RNQJXxysi92MJcqBM2zN-15" target="RNQJXxysi92MJcqBM2zN-24" edge="1">
          <mxGeometry relative="1" as="geometry" />
        </mxCell>
        <mxCell id="RNQJXxysi92MJcqBM2zN-63" value="gazebo_controller" style="whiteSpace=wrap;html=1;shadow=1;fontSize=18;fillColor=#f5f5f5;strokeColor=#666666;" parent="1" vertex="1">
          <mxGeometry x="220" y="480" width="207" height="56" as="geometry" />
        </mxCell>
        <mxCell id="RNQJXxysi92MJcqBM2zN-66" value="&lt;h1&gt;Simulation&lt;/h1&gt;" style="text;html=1;strokeColor=none;fillColor=none;align=center;verticalAlign=middle;whiteSpace=wrap;rounded=0;dashed=1;" parent="1" vertex="1">
          <mxGeometry x="257" y="423.75" width="136" height="35.63" as="geometry" />
        </mxCell>
      </root>
    </mxGraphModel>
  </diagram>
</mxfile>
